<?xml version="1.0" encoding="utf-8"?>
<!-- Generator: Adobe Illustrator 21.1.0, SVG Export Plug-In . SVG Version: 6.00 Build 0)  -->
<svg version="1.1" id="Ebene_1" xmlns="http://www.w3.org/2000/svg" xmlns:xlink="http://www.w3.org/1999/xlink" x="0px" y="0px"
	 viewBox="0 0 146 124" style="enable-background:new 0 0 146 124;" xml:space="preserve">
<style type="text/css">
	.st0{fill:#0080C9;}
	.st1{fill-rule:evenodd;clip-rule:evenodd;fill:#0080C9;}
</style>
<g>
	<g>
		<path class="st0" d="M92.2,98.2H53.8L16.9,61.1L73.2,4.8l56.3,56.3L92.2,98.2z M56.8,91.1h32.4l30.1-30L73.2,14.9L27,61.1
			L56.8,91.1z"/>
	</g>
	<g>
		<path class="st0" d="M73.2,86.3c-14.7,0-26.7-12-26.7-26.7c0-14.7,12-26.7,26.7-26.7c14.7,0,26.7,12,26.7,26.7
			C99.8,74.4,87.9,86.3,73.2,86.3z M73.2,40c-10.8,0-19.6,8.8-19.6,19.6c0,10.8,8.8,19.6,19.6,19.6c10.8,0,19.6-8.8,19.6-19.6
			C92.8,48.8,84,40,73.2,40z"/>
	</g>
	<g>
		<polygon class="st0" points="2.9,118.8 6.6,118.8 6.6,114.9 7.7,113.6 10.6,118.8 15.3,118.8 10.2,110.7 14.5,105.4 10,105.4 
			6.7,110 6.6,110 6.6,105.4 2.9,105.4 2.9,118.8 		"/>
	</g>
	<g>
		<polygon class="st0" points="16.4,118.8 25.4,118.8 25.4,115.4 20.1,115.4 20.1,105.4 16.4,105.4 16.4,118.8 		"/>
	</g>
	<g>
		<polygon class="st0" points="27.3,118.8 31,118.8 31,105.4 27.3,105.4 27.3,118.8 		"/>
	</g>
	<g>
		<polygon class="st0" points="33.3,118.8 36.8,118.8 36.8,111.5 36.8,111.5 40.5,118.8 44.1,118.8 44.1,105.4 40.6,105.4 
			40.6,112.6 40.6,112.6 37.1,105.4 33.3,105.4 33.3,118.8 		"/>
	</g>
	<g>
		<polygon class="st0" points="59.4,118.8 69.5,118.8 69.5,115.4 63.1,115.4 63.1,113.7 68.7,113.7 68.7,110.5 63.1,110.5 
			63.1,108.8 69.3,108.8 69.3,105.4 59.4,105.4 59.4,118.8 		"/>
	</g>
	<g>
		<polygon class="st0" points="71.5,118.8 80.5,118.8 80.5,115.4 75.2,115.4 75.2,105.4 71.5,105.4 71.5,118.8 		"/>
	</g>
	<g>
		<polygon class="st0" points="82,118.8 85.5,118.8 85.5,111.5 85.6,111.5 89.3,118.8 92.9,118.8 92.9,105.4 89.4,105.4 89.4,112.6 
			89.3,112.6 85.8,105.4 82,105.4 82,118.8 		"/>
	</g>
	<g>
		<path class="st1" d="M98.6,113.1h2.3c0.9,0,1.3,0.4,1.3,1.2c0,1-0.7,1.3-1.4,1.3h-2.2V113.1L98.6,113.1z M94.9,118.8h6.8
			c2.1,0,4.2-1.4,4.2-4.1c0-2-1-2.9-2.1-3.4c0.9-0.5,1.5-1.3,1.5-2.6c0-1.4-0.7-3.4-3.8-3.4h-6.6V118.8L94.9,118.8z M98.6,108.6h2
			c0.8,0,1.3,0.2,1.3,0.9c0,0.9-0.5,1.1-1.3,1.1h-2V108.6L98.6,108.6z"/>
	</g>
	<g>
		<polygon class="st0" points="107.3,118.8 117.5,118.8 117.5,115.4 111,115.4 111,113.7 116.7,113.7 116.7,110.5 111,110.5 
			111,108.8 117.3,108.8 117.3,105.4 107.3,105.4 107.3,118.8 		"/>
	</g>
	<g>
		<path class="st1" d="M119.5,118.8h3.7v-4.7h2c1.5,0,1.6,1.3,1.7,2.6c0.1,0.7,0.1,1.4,0.3,2.1h3.7c-0.3-0.6-0.4-2.2-0.4-2.9
			c-0.1-1.7-0.8-2.9-1.8-3.4c1.2-0.5,1.8-2,1.8-3.4c0-2.5-1.8-3.8-3.9-3.8h-7.1V118.8L119.5,118.8z M123.2,108.6h1.7
			c1.4,0,1.8,0.5,1.8,1.3c0,1.2-0.9,1.3-1.6,1.3h-1.9V108.6L123.2,108.6z"/>
	</g>
	<g>
		<path class="st0" d="M55.1,118.8h2.3v-7.4h-4.9v2.9h1.6c-0.2,1-1.1,1.5-1.9,1.5c-2.3,0-2.7-2.2-2.7-3.5c0-0.9-0.1-3.9,2.5-3.9
			c0.9,0,1.6,0.7,1.8,1.7h3.6c-0.5-3.2-2.5-5-5.5-5c-2.7,0-5.9,2.1-5.9,7.2c0,3.8,2.2,6.9,5.7,6.9c1.3,0,2.6-0.5,3.4-1.7L55.1,118.8
			L55.1,118.8z"/>
	</g>
	<g>
		<path class="st0" d="M140.7,118.8h2.3v-7.4h-4.9v2.9h1.6c-0.2,1-1.1,1.5-1.9,1.5c-2.3,0-2.7-2.2-2.7-3.5c0-0.9-0.1-3.9,2.5-3.9
			c0.9,0,1.6,0.7,1.8,1.7h3.6c-0.5-3.2-2.5-5-5.5-5c-2.7,0-5.9,2.1-5.9,7.2c0,3.8,2.2,6.9,5.7,6.9c1.3,0,2.6-0.5,3.4-1.7
			L140.7,118.8L140.7,118.8z"/>
	</g>
</g>
</svg>
